<?xml version="1.0" encoding="utf-8"?>
<!-- Generator: Adobe Illustrator 26.0.1, SVG Export Plug-In . SVG Version: 6.00 Build 0)  -->
<svg version="1.1" xmlns="http://www.w3.org/2000/svg" xmlns:xlink="http://www.w3.org/1999/xlink" x="0px" y="0px"
	 viewBox="0 0 1920 1080" style="enable-background:new 0 0 1920 1080;" xml:space="preserve">
<style type="text/css">
	.st0{fill:#FF7900;}
</style>
<g id="Layer_3">
	<g>
		<path class="st0" d="M1032.2,474.6c-22.5,18.2-39.2,35.4-50.8,48.6c-17.8,20.2-25.8,33.4-29.8,40.7c-5.4,9.6-9.1,18.2-11.6,24.4
			c-1.1-3.6-2.9-8.8-5.4-14.8c-3.9-9.2-11.8-25.2-32.3-48.8c-11.6-13.3-29.4-31.5-54.5-50.1c12.3,1.4,39,6.2,64.1,26.6
			c14.2,11.5,23,24.2,28.3,33.3c5.6-9.4,16.9-25.8,37-39.5C999.5,479.9,1021.1,475.9,1032.2,474.6z"/>
		<path class="st0" d="M947.6,515.8c0.5,4.8-3.3,8.8-7.6,8.9c-4.5,0.1-8.4-4-7.9-8.9c-17.9-18.6-35.8-37.2-53.8-55.7l2.2-2.2
			l53.8,54.7c-0.8,4.4,1.6,8,4.4,8.6c1.9,0.4,4-0.6,5.2-2c1.6-1.8,2-4.4,1-6.7c18.4-18.2,36.8-36.5,55.2-54.7l3,3L947.6,515.8z"/>
	</g>
</g>
<g id="Layer_4">
	<path class="st0" d="M1067.4,474.6c-30.4,0-55.1,26.2-55.1,58.5c0,32.3,24.7,58.5,55.1,58.5s55.1-26.2,55.1-58.5
		C1122.5,500.8,1097.8,474.6,1067.4,474.6z M1067.5,569.4c-16.3,0-29.5-16.1-29.5-36c0-19.9,13.2-36,29.5-36s29.5,16.1,29.5,36
		C1097,553.3,1083.8,569.4,1067.5,569.4z"/>
</g>
<g id="Layer_5">
	<polygon class="st0" points="1242.1,476.7 1242.1,589.7 1216.2,589.7 1163.8,509.6 1164.8,589.7 1141.5,589.7 1141.5,476.7 
		1168.2,476.7 1218.5,554.8 1218.5,476.7 	"/>
</g>
<g id="Layer_6">
	<polygon class="st0" points="870.3,569 870.3,589.3 803.1,589.3 803.1,476.3 828.5,476.3 828.5,569 	"/>
</g>
<g id="Layer_7">
	<path class="st0" d="M749.4,476.3h-30.1l-41.4,113h28.3l7.3-24.4l40.2,0.2l7.9,24.2h28L749.4,476.3z M719.1,544.9l14.4-47.2
		l14.4,47.2H719.1z"/>
</g>
</svg>
